<svg width="400" height="400" viewBox="0 0 400 400" xmlns="http://www.w3.org/2000/svg">
  <circle cx="200" cy="200" r="160" fill="#FFF" opacity="0.8"/>
  
  <g transform="translate(100, 100)">
    <path d="M 20 180 A 100 100 0 0 1 180 180 Z" fill="#FFA573" />
    <rect x="50" y="80" width="100" height="100" rx="10" ry="10" fill="#FF8C5E" />
    
    <circle cx="100" cy="120" r="15" fill="#FFF" />
    <rect x="95" y="130" width="10" height="25" fill="#FFF" />
    
    <g transform="translate(130, 20) rotate(-45)">
      <path d="M 30 15 A 15 15 0 1 0 0 15 A 15 15 0 0 0 30 15 Z" fill="#E1511D"/>
      <rect x="10" y="30" width="10" height="40" rx="2" ry="2" fill="#E1511D"/>
      <rect x="5" y="55" width="10" height="5" rx="1" ry="1" fill="#E1511D"/>
      <rect x="5" y="65" width="10" height="5" rx="1" ry="1" fill="#E1511D"/>
    </g>
    
    <path d="M -10 40 A 15 15 0 1 1 -10 70 A 15 15 0 0 1 -10 40 Z" fill="#E1511D" opacity="0.3"/>
    <path d="M 190 60 A 12 12 0 1 1 190 84 A 12 12 0 0 1 190 60 Z" fill="#FF7034" opacity="0.4"/>
    <path d="M 210 140 A 18 18 0 1 1 210 176 A 18 18 0 0 1 210 140 Z" fill="#E1511D" opacity="0.2"/>
  </g>
</svg>